<svg width="68" height="36" viewBox="0 0 68 36" fill="none" xmlns="http://www.w3.org/2000/svg">
<g clip-path="url(#clip0_299_5)">
<path d="M17 0L23.0622 10.5L10.9378 10.5L17 0Z" fill="#8C24DE"/>
<path d="M32.5706 12.44L31.4906 10.988C31.1706 11.052 30.8586 11.084 30.5546 11.084C29.7626 11.084 29.0346 10.9 28.3706 10.532C27.7146 10.164 27.1906 9.652 26.7986 8.996C26.4146 8.332 26.2226 7.588 26.2226 6.764C26.2226 5.94 26.4146 5.2 26.7986 4.544C27.1906 3.888 27.7146 3.376 28.3706 3.008C29.0346 2.64 29.7626 2.456 30.5546 2.456C31.3466 2.456 32.0706 2.64 32.7266 3.008C33.3906 3.376 33.9106 3.888 34.2866 4.544C34.6706 5.2 34.8626 5.94 34.8626 6.764C34.8626 7.484 34.7146 8.144 34.4186 8.744C34.1306 9.336 33.7266 9.828 33.2066 10.22L35.0546 12.44H32.5706ZM28.3226 6.764C28.3226 7.508 28.5226 8.104 28.9226 8.552C29.3306 8.992 29.8746 9.212 30.5546 9.212C31.2266 9.212 31.7626 8.988 32.1626 8.54C32.5706 8.092 32.7746 7.5 32.7746 6.764C32.7746 6.02 32.5706 5.428 32.1626 4.988C31.7626 4.54 31.2266 4.316 30.5546 4.316C29.8746 4.316 29.3306 4.536 28.9226 4.976C28.5226 5.416 28.3226 6.012 28.3226 6.764ZM38.2236 2.576V7.616C38.2236 8.12 38.3476 8.508 38.5956 8.78C38.8436 9.052 39.2076 9.188 39.6876 9.188C40.1676 9.188 40.5356 9.052 40.7916 8.78C41.0476 8.508 41.1756 8.12 41.1756 7.616V2.576H43.2276V7.604C43.2276 8.356 43.0676 8.992 42.7476 9.512C42.4276 10.032 41.9956 10.424 41.4516 10.688C40.9156 10.952 40.3156 11.084 39.6516 11.084C38.9876 11.084 38.3916 10.956 37.8636 10.7C37.3436 10.436 36.9316 10.044 36.6276 9.524C36.3236 8.996 36.1716 8.356 36.1716 7.604V2.576H38.2236ZM46.9005 4.22V5.924H49.6485V7.508H46.9005V9.356H50.0085V11H44.8485V2.576H50.0085V4.22H46.9005ZM53.5727 4.22V5.924H56.3207V7.508H53.5727V9.356H56.6807V11H51.5207V2.576H56.6807V4.22H53.5727ZM62.4889 11L60.7369 7.82H60.2449V11H58.1929V2.576H61.6369C62.3009 2.576 62.8649 2.692 63.3289 2.924C63.8009 3.156 64.1529 3.476 64.3849 3.884C64.6169 4.284 64.7329 4.732 64.7329 5.228C64.7329 5.788 64.5729 6.288 64.2529 6.728C63.9409 7.168 63.4769 7.48 62.8609 7.664L64.8049 11H62.4889ZM60.2449 6.368H61.5169C61.8929 6.368 62.1729 6.276 62.3569 6.092C62.5489 5.908 62.6449 5.648 62.6449 5.312C62.6449 4.992 62.5489 4.74 62.3569 4.556C62.1729 4.372 61.8929 4.28 61.5169 4.28H60.2449V6.368ZM20.5907 13.576V22H18.5387V16.948L16.6547 22H14.9987L13.1027 16.936V22H11.0507V13.576H13.4747L15.8387 19.408L18.1787 13.576H20.5907ZM26.2303 22.084C25.4383 22.084 24.7103 21.9 24.0463 21.532C23.3903 21.164 22.8663 20.652 22.4743 19.996C22.0903 19.332 21.8983 18.588 21.8983 17.764C21.8983 16.94 22.0903 16.2 22.4743 15.544C22.8663 14.888 23.3903 14.376 24.0463 14.008C24.7103 13.64 25.4383 13.456 26.2303 13.456C27.0223 13.456 27.7463 13.64 28.4023 14.008C29.0663 14.376 29.5863 14.888 29.9623 15.544C30.3463 16.2 30.5383 16.94 30.5383 17.764C30.5383 18.588 30.3463 19.332 29.9623 19.996C29.5783 20.652 29.0583 21.164 28.4023 21.532C27.7463 21.9 27.0223 22.084 26.2303 22.084ZM26.2303 20.212C26.9023 20.212 27.4383 19.988 27.8383 19.54C28.2463 19.092 28.4503 18.5 28.4503 17.764C28.4503 17.02 28.2463 16.428 27.8383 15.988C27.4383 15.54 26.9023 15.316 26.2303 15.316C25.5503 15.316 25.0063 15.536 24.5983 15.976C24.1983 16.416 23.9983 17.012 23.9983 17.764C23.9983 18.508 24.1983 19.104 24.5983 19.552C25.0063 19.992 25.5503 20.212 26.2303 20.212ZM41.3999 13.576V22H39.3479V16.948L37.4639 22H35.8079L33.9119 16.936V22H31.8599V13.576H34.2839L36.6479 19.408L38.9879 13.576H41.3999ZM45.1076 15.22V16.924H47.8556V18.508H45.1076V20.356H48.2156V22H43.0556V13.576H48.2156V15.22H45.1076ZM57.2638 22H55.2118L51.7797 16.804V22H49.7277V13.576H51.7797L55.2118 18.796V13.576H57.2638V22ZM64.9912 13.576V15.22H62.7592V22H60.7072V15.22H58.4752V13.576H64.9912Z" fill="#333333"/>
<path d="M12.849 23.738H14.224V30.041H12.849V23.738ZM16.754 23.738H18.14V30.041H16.754V23.738ZM10.484 29.172H20.549V30.459H10.484V29.172ZM10.858 25.784H20.208V27.049H10.858V25.784ZM16.259 31.493L17.469 30.833C18.404 31.526 19.768 32.549 20.472 33.22L19.163 33.99C18.547 33.33 17.238 32.252 16.259 31.493ZM13.333 30.877L14.73 31.416C13.905 32.373 12.695 33.374 11.628 33.99C11.353 33.715 10.858 33.297 10.55 33.066C11.584 32.527 12.761 31.614 13.333 30.877ZM27.424 26.213H32.924V27.324H27.424V26.213ZM27.941 28.16H29.151V32.593H27.941V28.16ZM28.601 28.16H32.44V31.867H28.601V30.767H31.219V29.238H28.601V28.16ZM25.51 24.178H34.31V25.432H26.786V34.001H25.51V24.178ZM33.573 24.178H34.871V32.483C34.871 33.165 34.739 33.539 34.31 33.748C33.892 33.968 33.287 34.001 32.352 34.001C32.308 33.638 32.11 33.033 31.912 32.703C32.495 32.725 33.133 32.725 33.32 32.725C33.507 32.714 33.573 32.648 33.573 32.461V24.178ZM42.12 26.752H49.765V27.797H42.12V26.752ZM42.208 29.964H48.247V30.998H42.208V29.964ZM43.616 26.026H44.859V28.523H46.872V26.026H48.17V29.524H43.616V26.026ZM47.906 29.964H48.159L48.39 29.909L49.215 30.327C48.027 32.714 45.365 33.627 42.274 34.012C42.175 33.682 41.933 33.187 41.724 32.912C44.54 32.67 47.015 31.889 47.906 30.129V29.964ZM44.463 30.767C45.453 31.999 47.51 32.67 50.04 32.89C49.765 33.165 49.435 33.693 49.27 34.023C46.597 33.693 44.562 32.813 43.33 31.174L44.463 30.767ZM44.529 23.661H45.904V25.311H44.529V23.661ZM41.229 24.651H49.82V25.828H41.229V24.651ZM40.58 24.651H41.845V27.753C41.845 29.546 41.68 32.252 40.679 33.957C40.448 33.737 39.898 33.374 39.59 33.231C40.514 31.669 40.58 29.37 40.58 27.753V24.651ZM54.671 24.684L55.694 24.002C56.299 24.552 57.036 25.322 57.366 25.861L56.255 26.642C55.969 26.092 55.276 25.278 54.671 24.684ZM57.102 27.731V31.966H55.804V28.963H54.517V27.731H57.102ZM56.42 31.262C56.805 31.262 57.091 31.581 57.74 31.922C58.488 32.34 59.522 32.417 60.732 32.417C61.876 32.417 63.68 32.307 64.791 32.142C64.626 32.516 64.395 33.209 64.384 33.605C63.603 33.66 61.821 33.715 60.688 33.715C59.291 33.715 58.345 33.594 57.531 33.154C57.014 32.879 56.64 32.538 56.387 32.538C56.068 32.538 55.595 33.264 55.199 33.924L54.264 32.582C55.023 31.779 55.859 31.262 56.42 31.262ZM57.729 25.553H64.527V26.796H57.729V25.553ZM61.832 23.727H63.174V30.426C63.174 31.185 63.009 31.537 62.503 31.735C62.019 31.944 61.271 31.977 60.237 31.977C60.182 31.592 59.973 31.009 59.786 30.635C60.501 30.668 61.293 30.668 61.524 30.668C61.755 30.657 61.832 30.602 61.832 30.404V23.727ZM58.037 27.852L59.093 27.258C59.632 27.907 60.347 28.809 60.666 29.392L59.544 30.085C59.247 29.502 58.576 28.545 58.037 27.852Z" fill="#333333"/>
<path d="M12.849 23.738V23.638H12.749V23.738H12.849ZM14.224 23.738H14.324V23.638H14.224V23.738ZM14.224 30.041V30.141H14.324V30.041H14.224ZM12.849 30.041H12.749V30.141H12.849V30.041ZM16.754 23.738V23.638H16.654V23.738H16.754ZM18.14 23.738H18.24V23.638H18.14V23.738ZM18.14 30.041V30.141H18.24V30.041H18.14ZM16.754 30.041H16.654V30.141H16.754V30.041ZM10.484 29.172V29.072H10.384V29.172H10.484ZM20.549 29.172H20.649V29.072H20.549V29.172ZM20.549 30.459V30.559H20.649V30.459H20.549ZM10.484 30.459H10.384V30.559H10.484V30.459ZM10.858 25.784V25.684H10.758V25.784H10.858ZM20.208 25.784H20.308V25.684H20.208V25.784ZM20.208 27.049V27.149H20.308V27.049H20.208ZM10.858 27.049H10.758V27.149H10.858V27.049ZM16.259 31.493L16.2111 31.4052L16.0769 31.4784L16.1977 31.572L16.259 31.493ZM17.469 30.833L17.5285 30.7527L17.4772 30.7146L17.4211 30.7452L17.469 30.833ZM20.472 33.22L20.5227 33.3062L20.6369 33.239L20.541 33.1476L20.472 33.22ZM19.163 33.99L19.0899 34.0582L19.1446 34.1168L19.2137 34.0762L19.163 33.99ZM13.333 30.877L13.369 30.7837L13.2996 30.7569L13.254 30.8157L13.333 30.877ZM14.73 31.416L14.8057 31.4813L14.8984 31.3738L14.766 31.3227L14.73 31.416ZM11.628 33.99L11.5573 34.0607L11.6115 34.115L11.678 34.0766L11.628 33.99ZM10.55 33.066L10.5038 32.9773L10.363 33.0507L10.49 33.146L10.55 33.066ZM12.849 23.838H14.224V23.638H12.849V23.838ZM14.124 23.738V30.041H14.324V23.738H14.124ZM14.224 29.941H12.849V30.141H14.224V29.941ZM12.949 30.041V23.738H12.749V30.041H12.949ZM16.754 23.838H18.14V23.638H16.754V23.838ZM18.04 23.738V30.041H18.24V23.738H18.04ZM18.14 29.941H16.754V30.141H18.14V29.941ZM16.854 30.041V23.738H16.654V30.041H16.854ZM10.484 29.272H20.549V29.072H10.484V29.272ZM20.449 29.172V30.459H20.649V29.172H20.449ZM20.549 30.359H10.484V30.559H20.549V30.359ZM10.584 30.459V29.172H10.384V30.459H10.584ZM10.858 25.884H20.208V25.684H10.858V25.884ZM20.108 25.784V27.049H20.308V25.784H20.108ZM20.208 26.949H10.858V27.149H20.208V26.949ZM10.958 27.049V25.784H10.758V27.049H10.958ZM16.3069 31.5808L17.5169 30.9208L17.4211 30.7452L16.2111 31.4052L16.3069 31.5808ZM17.4095 30.9133C18.3462 31.6077 19.7045 32.6266 20.403 33.2924L20.541 33.1476C19.8315 32.4714 18.4618 31.4443 17.5285 30.7527L17.4095 30.9133ZM20.4213 33.1338L19.1123 33.9038L19.2137 34.0762L20.5227 33.3062L20.4213 33.1338ZM19.2361 33.9218C18.6139 33.2551 17.2988 32.1726 16.3203 31.414L16.1977 31.572C17.1772 32.3314 18.4801 33.4049 19.0899 34.0582L19.2361 33.9218ZM13.297 30.9703L14.694 31.5093L14.766 31.3227L13.369 30.7837L13.297 30.9703ZM14.6543 31.3507C13.8365 32.2993 12.6352 33.2931 11.578 33.9034L11.678 34.0766C12.7548 33.4549 13.9735 32.4467 14.8057 31.4813L14.6543 31.3507ZM11.6987 33.9193C11.4196 33.6402 10.9209 33.2191 10.61 32.986L10.49 33.146C10.7951 33.3749 11.2864 33.7898 11.5573 34.0607L11.6987 33.9193ZM10.5962 33.1547C11.639 32.6111 12.8288 31.6898 13.412 30.9383L13.254 30.8157C12.6933 31.5382 11.529 32.4429 10.5038 32.9773L10.5962 33.1547ZM27.424 26.213V26.113H27.324V26.213H27.424ZM32.924 26.213H33.024V26.113H32.924V26.213ZM32.924 27.324V27.424H33.024V27.324H32.924ZM27.424 27.324H27.324V27.424H27.424V27.324ZM27.941 28.16V28.06H27.841V28.16H27.941ZM29.151 28.16H29.251V28.06H29.151V28.16ZM29.151 32.593V32.693H29.251V32.593H29.151ZM27.941 32.593H27.841V32.693H27.941V32.593ZM28.601 28.16V28.06H28.501V28.16H28.601ZM32.44 28.16H32.54V28.06H32.44V28.16ZM32.44 31.867V31.967H32.54V31.867H32.44ZM28.601 31.867H28.501V31.967H28.601V31.867ZM28.601 30.767V30.667H28.501V30.767H28.601ZM31.219 30.767V30.867H31.319V30.767H31.219ZM31.219 29.238H31.319V29.138H31.219V29.238ZM28.601 29.238H28.501V29.338H28.601V29.238ZM25.51 24.178V24.078H25.41V24.178H25.51ZM34.31 24.178H34.41V24.078H34.31V24.178ZM34.31 25.432V25.532H34.41V25.432H34.31ZM26.786 25.432V25.332H26.686V25.432H26.786ZM26.786 34.001V34.101H26.886V34.001H26.786ZM25.51 34.001H25.41V34.101H25.51V34.001ZM33.573 24.178V24.078H33.473V24.178H33.573ZM34.871 24.178H34.971V24.078H34.871V24.178ZM34.31 33.748L34.2662 33.6581L34.2634 33.6595L34.31 33.748ZM32.352 34.001L32.2527 34.013L32.2634 34.101H32.352V34.001ZM31.912 32.703L31.9158 32.6031L31.7312 32.5961L31.8263 32.7544L31.912 32.703ZM33.32 32.725V32.8252L33.3259 32.8248L33.32 32.725ZM27.424 26.313H32.924V26.113H27.424V26.313ZM32.824 26.213V27.324H33.024V26.213H32.824ZM32.924 27.224H27.424V27.424H32.924V27.224ZM27.524 27.324V26.213H27.324V27.324H27.524ZM27.941 28.26H29.151V28.06H27.941V28.26ZM29.051 28.16V32.593H29.251V28.16H29.051ZM29.151 32.493H27.941V32.693H29.151V32.493ZM28.041 32.593V28.16H27.841V32.593H28.041ZM28.601 28.26H32.44V28.06H28.601V28.26ZM32.34 28.16V31.867H32.54V28.16H32.34ZM32.44 31.767H28.601V31.967H32.44V31.767ZM28.701 31.867V30.767H28.501V31.867H28.701ZM28.601 30.867H31.219V30.667H28.601V30.867ZM31.319 30.767V29.238H31.119V30.767H31.319ZM31.219 29.138H28.601V29.338H31.219V29.138ZM28.701 29.238V28.16H28.501V29.238H28.701ZM25.51 24.278H34.31V24.078H25.51V24.278ZM34.21 24.178V25.432H34.41V24.178H34.21ZM34.31 25.332H26.786V25.532H34.31V25.332ZM26.686 25.432V34.001H26.886V25.432H26.686ZM26.786 33.901H25.51V34.101H26.786V33.901ZM25.61 34.001V24.178H25.41V34.001H25.61ZM33.573 24.278H34.871V24.078H33.573V24.278ZM34.771 24.178V32.483H34.971V24.178H34.771ZM34.771 32.483C34.771 32.8198 34.738 33.0677 34.6593 33.2539C34.5826 33.4352 34.4603 33.5635 34.2662 33.6581L34.3538 33.8379C34.5887 33.7235 34.7469 33.5603 34.8435 33.3318C34.938 33.1083 34.971 32.8282 34.971 32.483H34.771ZM34.2634 33.6595C34.0699 33.7613 33.828 33.8225 33.5138 33.8576C33.1994 33.8927 32.8193 33.901 32.352 33.901V34.101C32.8197 34.101 33.2096 34.0928 33.536 34.0564C33.8625 34.02 34.1321 33.9547 34.3566 33.8365L34.2634 33.6595ZM32.4513 33.989C32.4057 33.613 32.2035 32.9944 31.9977 32.6516L31.8263 32.7544C32.0165 33.0716 32.2103 33.663 32.2527 34.013L32.4513 33.989ZM31.9082 32.8029C32.4933 32.825 33.1331 32.825 33.32 32.825V32.625C33.1329 32.625 32.4967 32.625 31.9158 32.6031L31.9082 32.8029ZM33.3259 32.8248C33.4259 32.8189 33.5216 32.7977 33.5885 32.7285C33.6561 32.6586 33.673 32.5621 33.673 32.461H33.473C33.473 32.5469 33.4569 32.5769 33.4447 32.5895C33.4319 32.6028 33.4011 32.6201 33.3141 32.6252L33.3259 32.8248ZM33.673 32.461V24.178H33.473V32.461H33.673ZM42.12 26.752V26.652H42.02V26.752H42.12ZM49.765 26.752H49.865V26.652H49.765V26.752ZM49.765 27.797V27.897H49.865V27.797H49.765ZM42.12 27.797H42.02V27.897H42.12V27.797ZM42.208 29.964V29.864H42.108V29.964H42.208ZM48.247 29.964H48.347V29.864H48.247V29.964ZM48.247 30.998V31.098H48.347V30.998H48.247ZM42.208 30.998H42.108V31.098H42.208V30.998ZM43.616 26.026V25.926H43.516V26.026H43.616ZM44.859 26.026H44.959V25.926H44.859V26.026ZM44.859 28.523H44.759V28.623H44.859V28.523ZM46.872 28.523V28.623H46.972V28.523H46.872ZM46.872 26.026V25.926H46.772V26.026H46.872ZM48.17 26.026H48.27V25.926H48.17V26.026ZM48.17 29.524V29.624H48.27V29.524H48.17ZM43.616 29.524H43.516V29.624H43.616V29.524ZM47.906 29.964V29.864H47.806V29.964H47.906ZM48.159 29.964V30.064H48.1707L48.1822 30.0613L48.159 29.964ZM48.39 29.909L48.4352 29.8198L48.4025 29.8032L48.3668 29.8117L48.39 29.909ZM49.215 30.327L49.3045 30.3716L49.3488 30.2827L49.2602 30.2378L49.215 30.327ZM42.274 34.012L42.1782 34.0407L42.2025 34.1217L42.2864 34.1112L42.274 34.012ZM41.724 32.912L41.7154 32.8124L41.5345 32.8279L41.6444 32.9725L41.724 32.912ZM47.906 30.129L47.9952 30.1742L48.006 30.1529V30.129H47.906ZM44.463 30.767L44.541 30.7044L44.4963 30.6488L44.4292 30.6729L44.463 30.767ZM50.04 32.89L50.1107 32.9607L50.2625 32.809L50.0487 32.7904L50.04 32.89ZM49.27 34.023L49.2577 34.1222L49.3279 34.1309L49.3594 34.0677L49.27 34.023ZM43.33 31.174L43.2962 31.0799L43.1686 31.1257L43.2501 31.2341L43.33 31.174ZM44.529 23.661V23.561H44.429V23.661H44.529ZM45.904 23.661H46.004V23.561H45.904V23.661ZM45.904 25.311V25.411H46.004V25.311H45.904ZM44.529 25.311H44.429V25.411H44.529V25.311ZM41.229 24.651V24.551H41.129V24.651H41.229ZM49.82 24.651H49.92V24.551H49.82V24.651ZM49.82 25.828V25.928H49.92V25.828H49.82ZM41.229 25.828H41.129V25.928H41.229V25.828ZM40.58 24.651V24.551H40.48V24.651H40.58ZM41.845 24.651H41.945V24.551H41.845V24.651ZM40.679 33.957L40.61 34.0294L40.7014 34.1164L40.7652 34.0076L40.679 33.957ZM39.59 33.231L39.5039 33.1801L39.4477 33.2752L39.5479 33.3217L39.59 33.231ZM42.12 26.852H49.765V26.652H42.12V26.852ZM49.665 26.752V27.797H49.865V26.752H49.665ZM49.765 27.697H42.12V27.897H49.765V27.697ZM42.22 27.797V26.752H42.02V27.797H42.22ZM42.208 30.064H48.247V29.864H42.208V30.064ZM48.147 29.964V30.998H48.347V29.964H48.147ZM48.247 30.898H42.208V31.098H48.247V30.898ZM42.308 30.998V29.964H42.108V30.998H42.308ZM43.616 26.126H44.859V25.926H43.616V26.126ZM44.759 26.026V28.523H44.959V26.026H44.759ZM44.859 28.623H46.872V28.423H44.859V28.623ZM46.972 28.523V26.026H46.772V28.523H46.972ZM46.872 26.126H48.17V25.926H46.872V26.126ZM48.07 26.026V29.524H48.27V26.026H48.07ZM48.17 29.424H43.616V29.624H48.17V29.424ZM43.716 29.524V26.026H43.516V29.524H43.716ZM47.906 30.064H48.159V29.864H47.906V30.064ZM48.1822 30.0613L48.4132 30.0063L48.3668 29.8117L48.1358 29.8667L48.1822 30.0613ZM48.3448 29.9982L49.1698 30.4162L49.2602 30.2378L48.4352 29.8198L48.3448 29.9982ZM49.1255 30.2824C47.962 32.6202 45.3488 33.5282 42.2616 33.9128L42.2864 34.1112C45.3812 33.7258 48.092 32.8078 49.3045 30.3716L49.1255 30.2824ZM42.3698 33.9833C42.2677 33.6431 42.0206 33.1371 41.8036 32.8515L41.6444 32.9725C41.8454 33.2369 42.0823 33.7209 42.1782 34.0407L42.3698 33.9833ZM41.7326 33.0116C43.1461 32.8902 44.4799 32.633 45.5749 32.1822C46.6697 31.7315 47.535 31.0832 47.9952 30.1742L47.8168 30.0838C47.386 30.9348 46.5683 31.557 45.4988 31.9973C44.4296 32.4375 43.1179 32.6918 41.7154 32.8124L41.7326 33.0116ZM48.006 30.129V29.964H47.806V30.129H48.006ZM44.385 30.8296C44.8954 31.4647 45.6753 31.949 46.6396 32.3019C47.6046 32.6551 48.7606 32.8791 50.0313 32.9896L50.0487 32.7904C48.7894 32.6809 47.6519 32.4594 46.7084 32.1141C45.7642 31.7685 45.0206 31.3013 44.541 30.7044L44.385 30.8296ZM49.9693 32.8193C49.6834 33.1052 49.3477 33.644 49.1806 33.9783L49.3594 34.0677C49.5223 33.742 49.8466 33.2248 50.1107 32.9607L49.9693 32.8193ZM49.2823 33.9238C46.6224 33.5954 44.6188 32.7222 43.4099 31.1139L43.2501 31.2341C44.5052 32.9038 46.5716 33.7906 49.2577 34.1222L49.2823 33.9238ZM43.3638 31.2681L44.4968 30.8611L44.4292 30.6729L43.2962 31.0799L43.3638 31.2681ZM44.529 23.761H45.904V23.561H44.529V23.761ZM45.804 23.661V25.311H46.004V23.661H45.804ZM45.904 25.211H44.529V25.411H45.904V25.211ZM44.629 25.311V23.661H44.429V25.311H44.629ZM41.229 24.751H49.82V24.551H41.229V24.751ZM49.72 24.651V25.828H49.92V24.651H49.72ZM49.82 25.728H41.229V25.928H49.82V25.728ZM41.329 25.828V24.651H41.129V25.828H41.329ZM40.58 24.751H41.845V24.551H40.58V24.751ZM41.745 24.651V27.753H41.945V24.651H41.745ZM41.745 27.753C41.745 28.6469 41.7038 29.7662 41.5385 30.8732C41.3729 31.9816 41.0839 33.0699 40.5928 33.9064L40.7652 34.0076C41.2751 33.1391 41.5691 32.0219 41.7363 30.9028C41.9037 29.7823 41.945 28.6521 41.945 27.753H41.745ZM40.748 33.8846C40.6261 33.7685 40.4251 33.6189 40.2187 33.4818C40.0119 33.3444 39.7927 33.2148 39.6321 33.1403L39.5479 33.3217C39.6953 33.3902 39.9051 33.5136 40.108 33.6484C40.3114 33.7836 40.5009 33.9255 40.61 34.0294L40.748 33.8846ZM39.6761 33.2819C40.1477 32.4845 40.3978 31.5043 40.5306 30.5261C40.6635 29.5469 40.68 28.5623 40.68 27.753H40.48C40.48 28.5607 40.4635 29.5341 40.3324 30.4992C40.2012 31.4652 39.9562 32.4155 39.5039 33.1801L39.6761 33.2819ZM40.68 27.753V24.651H40.48V27.753H40.68ZM54.671 24.684L54.6155 24.6008L54.5131 24.6691L54.6009 24.7554L54.671 24.684ZM55.694 24.002L55.7613 23.928L55.7035 23.8755L55.6385 23.9188L55.694 24.002ZM57.366 25.861L57.4235 25.9428L57.5003 25.8888L57.4513 25.8088L57.366 25.861ZM56.255 26.642L56.1663 26.6881L56.219 26.7895L56.3125 26.7238L56.255 26.642ZM57.102 27.731H57.202V27.631H57.102V27.731ZM57.102 31.966V32.066H57.202V31.966H57.102ZM55.804 31.966H55.704V32.066H55.804V31.966ZM55.804 28.963H55.904V28.863H55.804V28.963ZM54.517 28.963H54.417V29.063H54.517V28.963ZM54.517 27.731V27.631H54.417V27.731H54.517ZM57.74 31.922L57.7888 31.8347L57.7865 31.8335L57.74 31.922ZM64.791 32.142L64.8825 32.1824L64.9557 32.0164L64.7763 32.0431L64.791 32.142ZM64.384 33.605L64.391 33.7048L64.4814 33.6984L64.484 33.6078L64.384 33.605ZM57.531 33.154L57.5786 33.066L57.578 33.0657L57.531 33.154ZM55.199 33.924L55.117 33.9812L55.2053 34.1079L55.2847 33.9754L55.199 33.924ZM54.264 32.582L54.1913 32.5133L54.1355 32.5724L54.182 32.6392L54.264 32.582ZM57.729 25.553V25.453H57.629V25.553H57.729ZM64.527 25.553H64.627V25.453H64.527V25.553ZM64.527 26.796V26.896H64.627V26.796H64.527ZM57.729 26.796H57.629V26.896H57.729V26.796ZM61.832 23.727V23.627H61.732V23.727H61.832ZM63.174 23.727H63.274V23.627H63.174V23.727ZM62.503 31.735L62.4665 31.6418L62.4634 31.6432L62.503 31.735ZM60.237 31.977L60.138 31.9911L60.1503 32.077H60.237V31.977ZM59.786 30.635L59.7906 30.5351L59.6203 30.5272L59.6966 30.6797L59.786 30.635ZM61.524 30.668V30.7681L61.5288 30.7679L61.524 30.668ZM58.037 27.852L57.988 27.7648L57.8868 27.8218L57.9581 27.9134L58.037 27.852ZM59.093 27.258L59.1699 27.1941L59.1167 27.13L59.044 27.1708L59.093 27.258ZM60.666 29.392L60.7185 29.4771L60.7993 29.4272L60.7537 29.344L60.666 29.392ZM59.544 30.085L59.4549 30.1304L59.5042 30.2271L59.5965 30.1701L59.544 30.085ZM54.7265 24.7672L55.7495 24.0852L55.6385 23.9188L54.6155 24.6008L54.7265 24.7672ZM55.6267 24.076C56.2307 24.625 56.9586 25.3871 57.2807 25.9132L57.4513 25.8088C57.1134 25.2569 56.3673 24.479 55.7613 23.928L55.6267 24.076ZM57.3085 25.7792L56.1975 26.5602L56.3125 26.7238L57.4235 25.9428L57.3085 25.7792ZM56.3437 26.5959C56.0502 26.0314 55.3479 25.2085 54.7411 24.6126L54.6009 24.7554C55.2041 25.3475 55.8878 26.1526 56.1663 26.6881L56.3437 26.5959ZM57.002 27.731V31.966H57.202V27.731H57.002ZM57.102 31.866H55.804V32.066H57.102V31.866ZM55.904 31.966V28.963H55.704V31.966H55.904ZM55.804 28.863H54.517V29.063H55.804V28.863ZM54.617 28.963V27.731H54.417V28.963H54.617ZM54.517 27.831H57.102V27.631H54.517V27.831ZM56.42 31.362C56.5832 31.362 56.7307 31.4287 56.929 31.5495C57.1228 31.6677 57.3655 31.8382 57.6935 32.0105L57.7865 31.8335C57.4655 31.6648 57.2407 31.5053 57.0331 31.3787C56.8298 31.2548 56.6418 31.162 56.42 31.162V31.362ZM57.6912 32.0093C58.4648 32.4416 59.524 32.517 60.732 32.517V32.317C59.52 32.317 58.5112 32.2384 57.7888 31.8347L57.6912 32.0093ZM60.732 32.517C61.8798 32.517 63.6888 32.4068 64.8057 32.2409L64.7763 32.0431C63.6712 32.2072 61.8722 32.317 60.732 32.317V32.517ZM64.6995 32.1016C64.6152 32.2928 64.5147 32.5636 64.4339 32.8369C64.3536 33.1082 64.2899 33.3907 64.284 33.6022L64.484 33.6078C64.4891 33.4233 64.5464 33.1613 64.6256 32.8936C64.7043 32.6279 64.8019 32.3652 64.8825 32.1824L64.6995 32.1016ZM64.377 33.5052C63.5989 33.56 61.8194 33.615 60.688 33.615V33.815C61.8226 33.815 63.6071 33.76 64.391 33.7048L64.377 33.5052ZM60.688 33.615C59.2943 33.615 58.3696 33.4936 57.5786 33.066L57.4834 33.242C58.3204 33.6944 59.2877 33.815 60.688 33.815V33.615ZM57.578 33.0657C57.3238 32.9305 57.1075 32.7807 56.9133 32.6583C56.8178 32.598 56.7266 32.5439 56.6416 32.5048C56.5575 32.466 56.4713 32.438 56.387 32.438V32.638C56.4292 32.638 56.4846 32.6526 56.5579 32.6864C56.6304 32.7198 56.7125 32.7681 56.8067 32.8275C56.992 32.9443 57.2212 33.1025 57.484 33.2423L57.578 33.0657ZM56.387 32.438C56.2717 32.438 56.1596 32.5019 56.059 32.5845C55.9556 32.6694 55.8491 32.7871 55.7433 32.9217C55.5314 33.1911 55.3113 33.5424 55.1133 33.8726L55.2847 33.9754C55.4827 33.6456 55.6971 33.3039 55.9005 33.0453C56.0023 32.9159 56.0986 32.8108 56.186 32.739C56.2762 32.6649 56.3428 32.638 56.387 32.638V32.438ZM55.281 33.8668L54.346 32.5248L54.182 32.6392L55.117 33.9812L55.281 33.8668ZM54.3367 32.6507C54.7113 32.2543 55.1034 31.9303 55.4686 31.7061C55.8362 31.4804 56.1666 31.362 56.42 31.362V31.162C56.1124 31.162 55.7443 31.3021 55.3639 31.5357C54.9811 31.7707 54.5757 32.1067 54.1913 32.5133L54.3367 32.6507ZM57.729 25.653H64.527V25.453H57.729V25.653ZM64.427 25.553V26.796H64.627V25.553H64.427ZM64.527 26.696H57.729V26.896H64.527V26.696ZM57.829 26.796V25.553H57.629V26.796H57.829ZM61.832 23.827H63.174V23.627H61.832V23.827ZM63.074 23.727V30.426H63.274V23.727H63.074ZM63.074 30.426C63.074 30.801 63.0327 31.0596 62.9389 31.2459C62.848 31.4266 62.7023 31.5496 62.4666 31.6419L62.5394 31.8281C62.8097 31.7224 62.9995 31.5704 63.1176 31.3358C63.2328 31.1069 63.274 30.81 63.274 30.426H63.074ZM62.4634 31.6432C62.2356 31.7416 61.9397 31.8008 61.5672 31.8348C61.1953 31.8687 60.7537 31.877 60.237 31.877V32.077C60.7543 32.077 61.2037 32.0688 61.5853 32.034C61.9663 31.9992 62.2864 31.9374 62.5426 31.8268L62.4634 31.6432ZM60.336 31.9629C60.279 31.5638 60.0654 30.9703 59.8754 30.5903L59.6966 30.6797C59.8806 31.0477 60.085 31.6202 60.138 31.9911L60.336 31.9629ZM59.7814 30.7349C60.499 30.768 61.2931 30.768 61.524 30.768V30.568C61.2929 30.568 60.503 30.568 59.7906 30.5351L59.7814 30.7349ZM61.5288 30.7679C61.6446 30.7624 61.7525 30.7461 61.8284 30.6831C61.9117 30.6142 61.932 30.5122 61.932 30.404H61.732C61.732 30.4938 61.7138 30.5183 61.7008 30.5291C61.6805 30.5459 61.6344 30.5626 61.5192 30.5681L61.5288 30.7679ZM61.932 30.404V23.727H61.732V30.404H61.932ZM58.086 27.9392L59.142 27.3452L59.044 27.1708L57.988 27.7648L58.086 27.9392ZM59.0161 27.3219C59.5562 27.9723 60.2647 28.8669 60.5783 29.44L60.7537 29.344C60.4293 28.7511 59.7078 27.8417 59.1699 27.1941L59.0161 27.3219ZM60.6135 29.3069L59.4915 29.9999L59.5965 30.1701L60.7185 29.4771L60.6135 29.3069ZM59.6331 30.0396C59.3316 29.4477 58.6556 28.4845 58.1159 27.7906L57.9581 27.9134C58.4964 28.6055 59.1624 29.5563 59.4549 30.1304L59.6331 30.0396Z" fill="black"/>
</g>
<defs>
<clipPath id="clip0_299_5">
<rect width="68" height="36" fill="white"/>
</clipPath>
</defs>
</svg>
