<svg width="242" height="54" viewBox="0 0 242 54" fill="none" xmlns="http://www.w3.org/2000/svg">
<rect width="242" height="43" fill="#F3D1F9"/>
<path d="M9.99 25.1776L10.6 25.3876C10.36 26.2376 9.97 27.2076 9.29 27.8076L8.74 27.3676C9.36 26.8576 9.77 25.9676 9.99 25.1776ZM12.38 25.5576L12.95 25.3576C13.29 26.0276 13.57 26.9076 13.67 27.4876L13.06 27.7176C12.97 27.1276 12.69 26.2376 12.38 25.5576ZM13.62 25.3376L14.21 25.0376C14.83 25.7876 15.44 26.8076 15.7 27.4976L15.06 27.8376C14.82 27.1376 14.21 26.0876 13.62 25.3376ZM13.28 22.4476C13.76 23.3976 14.72 24.2876 15.72 24.7076C15.55 24.8476 15.32 25.1276 15.21 25.3176C14.16 24.7976 13.17 23.7676 12.63 22.6676L13.28 22.4476ZM11.57 20.6976L12.33 20.8176C11.8 23.0476 10.7 24.5276 8.97 25.4476C8.87 25.2876 8.61 24.9876 8.46 24.8576C10.13 24.0676 11.14 22.7076 11.57 20.6976ZM14.39 19.7476L14.98 20.3176C13.53 20.7876 11.23 21.0176 9.31 21.1076C9.28 20.9276 9.19 20.6476 9.1 20.4676C10.98 20.3676 13.21 20.1276 14.39 19.7476ZM8.75 22.1376H15.46V22.8276H8.75V22.1376ZM11.24 24.1376H11.94V28.0276C11.94 28.4076 11.87 28.6176 11.59 28.7276C11.33 28.8376 10.89 28.8376 10.21 28.8376C10.19 28.6476 10.09 28.3776 10 28.1676C10.5 28.1876 10.94 28.1876 11.07 28.1776C11.2 28.1676 11.24 28.1376 11.24 28.0176V24.1376ZM6.85 20.2776L7.28 19.7476C7.85 20.0076 8.55 20.4376 8.91 20.7776L8.45 21.3776C8.12 21.0376 7.43 20.5676 6.85 20.2776ZM6.37 22.9976L6.79 22.4476C7.39 22.6776 8.12 23.0776 8.48 23.3976L8.05 23.9976C7.69 23.6776 6.97 23.2476 6.37 22.9976ZM6.59 28.2976C7 27.5576 7.57 26.3276 7.98 25.2476L8.58 25.6676C8.2 26.6676 7.71 27.8376 7.27 28.7276L6.59 28.2976ZM22.2 27.2376H24.92V27.9676H22.2V27.2376ZM16.68 21.5476H20.52V22.2776H16.68V21.5476ZM21.86 20.8976H25.28V28.6276H24.52V21.6176H22.59V28.6976H21.86V20.8976ZM20.32 21.5476H21.05C21.05 21.5476 21.05 21.8276 21.05 21.9276C20.97 26.3776 20.9 27.8376 20.58 28.2776C20.4 28.5376 20.22 28.6276 19.92 28.6576C19.64 28.6976 19.18 28.6976 18.73 28.6676C18.72 28.4476 18.64 28.1176 18.51 27.9076C18.98 27.9476 19.41 27.9476 19.6 27.9476C19.75 27.9576 19.84 27.9276 19.93 27.7976C20.16 27.4876 20.25 26.0076 20.32 21.7276V21.5476ZM18.1 19.7876H18.83C18.82 23.4776 18.77 26.9476 17.01 28.8576C16.88 28.6876 16.62 28.4576 16.43 28.3476C18.1 26.5876 18.09 23.2876 18.1 19.7876ZM27.06 20.2776H35.62V20.9776H27.06V20.2776ZM27.72 25.1576H34.94V25.8576H27.72V25.1576ZM26.84 27.7376H35.78V28.4376H26.84V27.7376ZM30.87 23.9176H31.65V28.2276H30.87V23.9176ZM27.24 22.9776C28.97 22.9476 31.78 22.8576 34.47 22.7576L34.43 23.4376C31.82 23.5576 29.04 23.6776 27.27 23.7376L27.24 22.9776ZM29.97 20.5976L30.83 20.8676C30.38 21.7476 29.8 22.7776 29.34 23.4276L28.65 23.1776C29.1 22.4876 29.67 21.3876 29.97 20.5976ZM32.21 21.6876L32.82 21.2776C33.81 21.9676 35.06 22.9976 35.65 23.7176L34.98 24.1976C34.42 23.4876 33.22 22.4276 32.21 21.6876Z" fill="#7C7C7C"/>
<path d="M107.474 26V25.3408L109.803 22.7529C110.079 22.4437 110.296 22.18 110.452 21.9619C110.608 21.7406 110.717 21.5404 110.779 21.3613C110.841 21.1823 110.872 20.9967 110.872 20.8047C110.872 20.4499 110.765 20.152 110.55 19.9111C110.335 19.667 110.027 19.5449 109.627 19.5449C109.21 19.5449 108.885 19.6702 108.65 19.9209C108.419 20.1715 108.304 20.5264 108.304 20.9854H107.381L107.371 20.9561C107.361 20.5459 107.448 20.1781 107.63 19.8525C107.812 19.5238 108.076 19.265 108.421 19.0762C108.769 18.8841 109.183 18.7881 109.661 18.7881C110.11 18.7881 110.496 18.8743 110.818 19.0469C111.144 19.2161 111.395 19.4489 111.57 19.7451C111.746 20.0413 111.834 20.3815 111.834 20.7656C111.834 21.026 111.782 21.2848 111.678 21.542C111.577 21.7992 111.427 22.0628 111.229 22.333C111.033 22.6032 110.797 22.888 110.521 23.1875L108.65 25.2236L108.66 25.248H111.185L111.263 24.4326H112.078V26H107.474ZM115.534 26.1025C114.837 26.1025 114.285 25.86 113.879 25.375C113.472 24.89 113.268 24.195 113.268 23.29V21.6055C113.268 20.7005 113.47 20.0055 113.874 19.5205C114.277 19.0322 114.827 18.7881 115.524 18.7881C116.224 18.7881 116.777 19.0322 117.184 19.5205C117.591 20.0055 117.795 20.7005 117.795 21.6055V23.29C117.795 24.1982 117.593 24.8949 117.189 25.3799C116.785 25.8617 116.234 26.1025 115.534 26.1025ZM115.534 25.3506C115.96 25.3506 116.282 25.1943 116.501 24.8818C116.722 24.5693 116.833 24.1038 116.833 23.4854V21.4004C116.833 20.7852 116.72 20.3229 116.496 20.0137C116.274 19.7012 115.95 19.5449 115.524 19.5449C115.104 19.5449 114.783 19.7012 114.562 20.0137C114.341 20.3229 114.23 20.7852 114.23 21.4004V23.4854C114.23 24.1006 114.342 24.5661 114.567 24.8818C114.792 25.1943 115.114 25.3506 115.534 25.3506ZM119.121 26V25.3848L120.22 25.248V19.9209L119.102 19.9404V19.3398L121.182 18.8906V25.248L122.276 25.3848V26H119.121ZM124.545 26L124.623 25.2334C124.714 24.4847 124.862 23.793 125.067 23.1582C125.272 22.5234 125.538 21.9196 125.863 21.3467C126.189 20.7738 126.579 20.2074 127.035 19.6475H124.066L123.993 20.4629H123.173V18.8906H127.977V19.6475C127.548 20.1585 127.193 20.6338 126.913 21.0732C126.633 21.5094 126.407 21.9408 126.234 22.3672C126.065 22.7904 125.931 23.2331 125.834 23.6953C125.736 24.1576 125.653 24.6702 125.585 25.2334L125.507 26H124.545Z" fill="#7C7C7C"/>
<path d="M107.474 38V37.3408L109.803 34.7529C110.079 34.4437 110.296 34.18 110.452 33.9619C110.608 33.7406 110.717 33.5404 110.779 33.3613C110.841 33.1823 110.872 32.9967 110.872 32.8047C110.872 32.4499 110.765 32.152 110.55 31.9111C110.335 31.667 110.027 31.5449 109.627 31.5449C109.21 31.5449 108.885 31.6702 108.65 31.9209C108.419 32.1715 108.304 32.5264 108.304 32.9854H107.381L107.371 32.9561C107.361 32.5459 107.448 32.1781 107.63 31.8525C107.812 31.5238 108.076 31.265 108.421 31.0762C108.769 30.8841 109.183 30.7881 109.661 30.7881C110.11 30.7881 110.496 30.8743 110.818 31.0469C111.144 31.2161 111.395 31.4489 111.57 31.7451C111.746 32.0413 111.834 32.3815 111.834 32.7656C111.834 33.026 111.782 33.2848 111.678 33.542C111.577 33.7992 111.427 34.0628 111.229 34.333C111.033 34.6032 110.797 34.888 110.521 35.1875L108.65 37.2236L108.66 37.248H111.185L111.263 36.4326H112.078V38H107.474ZM115.534 38.1025C114.837 38.1025 114.285 37.86 113.879 37.375C113.472 36.89 113.268 36.195 113.268 35.29V33.6055C113.268 32.7005 113.47 32.0055 113.874 31.5205C114.277 31.0322 114.827 30.7881 115.524 30.7881C116.224 30.7881 116.777 31.0322 117.184 31.5205C117.591 32.0055 117.795 32.7005 117.795 33.6055V35.29C117.795 36.1982 117.593 36.8949 117.189 37.3799C116.785 37.8617 116.234 38.1025 115.534 38.1025ZM115.534 37.3506C115.96 37.3506 116.282 37.1943 116.501 36.8818C116.722 36.5693 116.833 36.1038 116.833 35.4854V33.4004C116.833 32.7852 116.72 32.3229 116.496 32.0137C116.274 31.7012 115.95 31.5449 115.524 31.5449C115.104 31.5449 114.783 31.7012 114.562 32.0137C114.341 32.3229 114.23 32.7852 114.23 33.4004V35.4854C114.23 36.1006 114.342 36.5661 114.567 36.8818C114.792 37.1943 115.114 37.3506 115.534 37.3506ZM119.121 38V37.3848L120.22 37.248V31.9209L119.102 31.9404V31.3398L121.182 30.8906V37.248L122.276 37.3848V38H119.121ZM125.565 38.1025C125.1 38.1025 124.693 38.026 124.345 37.873C123.999 37.7168 123.731 37.4889 123.539 37.1895C123.347 36.8867 123.251 36.5156 123.251 36.0762C123.251 35.6758 123.371 35.3226 123.612 35.0166C123.853 34.7106 124.179 34.486 124.589 34.3428C124.234 34.2061 123.956 33.9993 123.754 33.7227C123.552 33.4427 123.451 33.1172 123.451 32.7461C123.451 32.3294 123.539 31.9762 123.715 31.6865C123.89 31.3936 124.136 31.1706 124.452 31.0176C124.768 30.8646 125.136 30.7881 125.555 30.7881C125.972 30.7881 126.34 30.8646 126.659 31.0176C126.978 31.1706 127.227 31.3936 127.406 31.6865C127.588 31.9762 127.679 32.3294 127.679 32.7461C127.679 33.1172 127.575 33.4427 127.367 33.7227C127.159 33.9993 126.877 34.2061 126.522 34.3428C126.932 34.486 127.26 34.7106 127.504 35.0166C127.751 35.3226 127.875 35.6758 127.875 36.0762C127.875 36.5156 127.777 36.8867 127.582 37.1895C127.387 37.4889 127.115 37.7168 126.766 37.873C126.421 38.026 126.021 38.1025 125.565 38.1025ZM125.565 37.3506C125.832 37.3506 126.067 37.2985 126.268 37.1943C126.473 37.0902 126.633 36.9421 126.747 36.75C126.861 36.5547 126.918 36.3236 126.918 36.0566C126.918 35.7962 126.859 35.5651 126.742 35.3633C126.625 35.1615 126.464 35.0036 126.259 34.8896C126.054 34.7757 125.819 34.7188 125.555 34.7188C125.292 34.7188 125.059 34.7757 124.857 34.8896C124.655 35.0036 124.498 35.1615 124.384 35.3633C124.27 35.5618 124.213 35.793 124.213 36.0566C124.213 36.4603 124.335 36.7777 124.579 37.0088C124.826 37.2367 125.155 37.3506 125.565 37.3506ZM125.565 33.9619C125.79 33.9619 125.988 33.9131 126.161 33.8154C126.337 33.7145 126.473 33.5745 126.571 33.3955C126.669 33.2165 126.718 33.0065 126.718 32.7656C126.718 32.5312 126.667 32.3229 126.566 32.1406C126.465 31.9551 126.327 31.8102 126.151 31.7061C125.979 31.5986 125.78 31.5449 125.555 31.5449C125.214 31.5449 124.937 31.6572 124.725 31.8818C124.517 32.1032 124.413 32.3978 124.413 32.7656C124.413 33.127 124.519 33.4167 124.73 33.6348C124.942 33.8529 125.22 33.9619 125.565 33.9619Z" fill="#7C7C7C" fill-opacity="0.2"/>
<path d="M107.474 13V12.3408L109.803 9.75293C110.079 9.44368 110.296 9.18001 110.452 8.96191C110.608 8.74056 110.717 8.54036 110.779 8.36133C110.841 8.18229 110.872 7.99674 110.872 7.80469C110.872 7.44987 110.765 7.15202 110.55 6.91113C110.335 6.66699 110.027 6.54492 109.627 6.54492C109.21 6.54492 108.885 6.67025 108.65 6.9209C108.419 7.17155 108.304 7.52637 108.304 7.98535H107.381L107.371 7.95605C107.361 7.5459 107.448 7.17806 107.63 6.85254C107.812 6.52376 108.076 6.26497 108.421 6.07617C108.769 5.88411 109.183 5.78809 109.661 5.78809C110.11 5.78809 110.496 5.87435 110.818 6.04688C111.144 6.21615 111.395 6.44889 111.57 6.74512C111.746 7.04134 111.834 7.38151 111.834 7.76562C111.834 8.02604 111.782 8.28483 111.678 8.54199C111.577 8.79915 111.427 9.06283 111.229 9.33301C111.033 9.60319 110.797 9.88802 110.521 10.1875L108.65 12.2236L108.66 12.248H111.185L111.263 11.4326H112.078V13H107.474ZM115.534 13.1025C114.837 13.1025 114.285 12.86 113.879 12.375C113.472 11.89 113.268 11.195 113.268 10.29V8.60547C113.268 7.70052 113.47 7.00553 113.874 6.52051C114.277 6.03223 114.827 5.78809 115.524 5.78809C116.224 5.78809 116.777 6.03223 117.184 6.52051C117.591 7.00553 117.795 7.70052 117.795 8.60547V10.29C117.795 11.1982 117.593 11.8949 117.189 12.3799C116.785 12.8617 116.234 13.1025 115.534 13.1025ZM115.534 12.3506C115.96 12.3506 116.282 12.1943 116.501 11.8818C116.722 11.5693 116.833 11.1038 116.833 10.4854V8.40039C116.833 7.78516 116.72 7.32292 116.496 7.01367C116.274 6.70117 115.95 6.54492 115.524 6.54492C115.104 6.54492 114.783 6.70117 114.562 7.01367C114.341 7.32292 114.23 7.78516 114.23 8.40039V10.4854C114.23 11.1006 114.342 11.5661 114.567 11.8818C114.792 12.1943 115.114 12.3506 115.534 12.3506ZM119.121 13V12.3848L120.22 12.248V6.9209L119.102 6.94043V6.33984L121.182 5.89062V12.248L122.276 12.3848V13H119.121ZM125.8 13.1025C125.337 13.1025 124.924 12.9902 124.559 12.7656C124.198 12.5378 123.913 12.2074 123.705 11.7744C123.497 11.3415 123.392 10.8174 123.392 10.2021V9.24512C123.392 8.49316 123.505 7.86165 123.729 7.35059C123.957 6.83626 124.27 6.44727 124.667 6.18359C125.067 5.91992 125.526 5.78809 126.044 5.78809C126.285 5.78809 126.524 5.81576 126.762 5.87109C127.002 5.92643 127.201 5.99642 127.357 6.08105L127.172 6.79883C127.019 6.72396 126.851 6.66374 126.669 6.61816C126.486 6.56934 126.278 6.54492 126.044 6.54492C125.546 6.54492 125.149 6.73372 124.852 7.11133C124.559 7.48568 124.403 8.05208 124.384 8.81055L124.403 8.83008C124.585 8.66081 124.808 8.52734 125.072 8.42969C125.336 8.32878 125.621 8.27832 125.927 8.27832C126.35 8.27832 126.718 8.37923 127.03 8.58105C127.343 8.77962 127.583 9.05469 127.753 9.40625C127.925 9.75781 128.012 10.1582 128.012 10.6074C128.012 11.099 127.92 11.5319 127.738 11.9062C127.556 12.2806 127.299 12.5736 126.967 12.7852C126.635 12.9967 126.246 13.1025 125.8 13.1025ZM125.8 12.3506C126.063 12.3506 126.288 12.2741 126.473 12.1211C126.659 11.9681 126.801 11.7598 126.898 11.4961C126.999 11.2324 127.05 10.9362 127.05 10.6074C127.05 10.1387 126.931 9.75293 126.693 9.4502C126.459 9.14746 126.133 8.99609 125.717 8.99609C125.499 8.99609 125.3 9.02702 125.121 9.08887C124.945 9.14746 124.792 9.2321 124.662 9.34277C124.535 9.4502 124.431 9.57715 124.349 9.72363V10.2949C124.349 10.9557 124.486 11.4635 124.76 11.8184C125.036 12.1732 125.383 12.3506 125.8 12.3506Z" fill="#7C7C7C" fill-opacity="0.2"/>
<path d="M163.856 26.1025C163.16 26.1025 162.608 25.86 162.201 25.375C161.794 24.89 161.591 24.195 161.591 23.29V21.6055C161.591 20.7005 161.793 20.0055 162.196 19.5205C162.6 19.0322 163.15 18.7881 163.847 18.7881C164.547 18.7881 165.1 19.0322 165.507 19.5205C165.914 20.0055 166.117 20.7005 166.117 21.6055V23.29C166.117 24.1982 165.915 24.8949 165.512 25.3799C165.108 25.8617 164.556 26.1025 163.856 26.1025ZM163.856 25.3506C164.283 25.3506 164.605 25.1943 164.823 24.8818C165.045 24.5693 165.155 24.1038 165.155 23.4854V21.4004C165.155 20.7852 165.043 20.3229 164.818 20.0137C164.597 19.7012 164.273 19.5449 163.847 19.5449C163.427 19.5449 163.106 19.7012 162.885 20.0137C162.663 20.3229 162.553 20.7852 162.553 21.4004V23.4854C162.553 24.1006 162.665 24.5661 162.89 24.8818C163.114 25.1943 163.437 25.3506 163.856 25.3506ZM169.402 26.1025C169.002 26.1025 168.642 26.0293 168.323 25.8828C168.007 25.7363 167.76 25.5199 167.581 25.2334C167.402 24.9437 167.317 24.5856 167.327 24.1592L167.337 24.1299H168.206C168.206 24.514 168.316 24.8135 168.538 25.0283C168.762 25.2432 169.05 25.3506 169.402 25.3506C169.809 25.3506 170.125 25.2074 170.349 24.9209C170.574 24.6344 170.686 24.2422 170.686 23.7441C170.686 23.2852 170.572 22.9108 170.344 22.6211C170.12 22.3281 169.807 22.1816 169.407 22.1816C169.029 22.1816 168.754 22.2386 168.582 22.3525C168.412 22.4665 168.289 22.6406 168.211 22.875L167.41 22.792L167.82 18.8906H171.575V20.2969H170.852L170.759 19.7451H168.635L168.406 21.7422C168.504 21.6673 168.609 21.6022 168.723 21.5469C168.837 21.4883 168.961 21.4411 169.094 21.4053C169.231 21.3695 169.379 21.3499 169.539 21.3467C169.975 21.3434 170.351 21.4395 170.667 21.6348C170.982 21.8268 171.225 22.1035 171.394 22.4648C171.563 22.8229 171.648 23.2461 171.648 23.7344C171.648 24.2096 171.562 24.6247 171.389 24.9795C171.22 25.3343 170.968 25.611 170.632 25.8096C170.3 26.0049 169.89 26.1025 169.402 26.1025Z" fill="#7C7C7C"/>
<path d="M163.856 38.1025C163.16 38.1025 162.608 37.86 162.201 37.375C161.794 36.89 161.591 36.195 161.591 35.29V33.6055C161.591 32.7005 161.793 32.0055 162.196 31.5205C162.6 31.0322 163.15 30.7881 163.847 30.7881C164.547 30.7881 165.1 31.0322 165.507 31.5205C165.914 32.0055 166.117 32.7005 166.117 33.6055V35.29C166.117 36.1982 165.915 36.8949 165.512 37.3799C165.108 37.8617 164.556 38.1025 163.856 38.1025ZM163.856 37.3506C164.283 37.3506 164.605 37.1943 164.823 36.8818C165.045 36.5693 165.155 36.1038 165.155 35.4854V33.4004C165.155 32.7852 165.043 32.3229 164.818 32.0137C164.597 31.7012 164.273 31.5449 163.847 31.5449C163.427 31.5449 163.106 31.7012 162.885 32.0137C162.663 32.3229 162.553 32.7852 162.553 33.4004V35.4854C162.553 36.1006 162.665 36.5661 162.89 36.8818C163.114 37.1943 163.437 37.3506 163.856 37.3506ZM169.851 38.1025C169.389 38.1025 168.976 37.9902 168.611 37.7656C168.25 37.5378 167.965 37.2074 167.756 36.7744C167.548 36.3415 167.444 35.8174 167.444 35.2021V34.2451C167.444 33.4932 167.556 32.8617 167.781 32.3506C168.009 31.8363 168.321 31.4473 168.718 31.1836C169.119 30.9199 169.578 30.7881 170.095 30.7881C170.336 30.7881 170.575 30.8158 170.813 30.8711C171.054 30.9264 171.253 30.9964 171.409 31.0811L171.223 31.7988C171.07 31.724 170.903 31.6637 170.72 31.6182C170.538 31.5693 170.33 31.5449 170.095 31.5449C169.597 31.5449 169.2 31.7337 168.904 32.1113C168.611 32.4857 168.455 33.0521 168.435 33.8105L168.455 33.8301C168.637 33.6608 168.86 33.5273 169.124 33.4297C169.387 33.3288 169.672 33.2783 169.978 33.2783C170.401 33.2783 170.769 33.3792 171.082 33.5811C171.394 33.7796 171.635 34.0547 171.804 34.4062C171.977 34.7578 172.063 35.1582 172.063 35.6074C172.063 36.099 171.972 36.5319 171.79 36.9062C171.607 37.2806 171.35 37.5736 171.018 37.7852C170.686 37.9967 170.297 38.1025 169.851 38.1025ZM169.851 37.3506C170.115 37.3506 170.339 37.2741 170.525 37.1211C170.711 36.9681 170.852 36.7598 170.95 36.4961C171.051 36.2324 171.101 35.9362 171.101 35.6074C171.101 35.1387 170.982 34.7529 170.745 34.4502C170.51 34.1475 170.185 33.9961 169.768 33.9961C169.55 33.9961 169.351 34.027 169.172 34.0889C168.997 34.1475 168.844 34.2321 168.713 34.3428C168.587 34.4502 168.482 34.5771 168.401 34.7236V35.2949C168.401 35.9557 168.538 36.4635 168.811 36.8184C169.088 37.1732 169.435 37.3506 169.851 37.3506Z" fill="#7C7C7C" fill-opacity="0.2"/>
<path d="M163.856 13.1025C163.16 13.1025 162.608 12.86 162.201 12.375C161.794 11.89 161.591 11.195 161.591 10.29V8.60547C161.591 7.70052 161.793 7.00553 162.196 6.52051C162.6 6.03223 163.15 5.78809 163.847 5.78809C164.547 5.78809 165.1 6.03223 165.507 6.52051C165.914 7.00553 166.117 7.70052 166.117 8.60547V10.29C166.117 11.1982 165.915 11.8949 165.512 12.3799C165.108 12.8617 164.556 13.1025 163.856 13.1025ZM163.856 12.3506C164.283 12.3506 164.605 12.1943 164.823 11.8818C165.045 11.5693 165.155 11.1038 165.155 10.4854V8.40039C165.155 7.78516 165.043 7.32292 164.818 7.01367C164.597 6.70117 164.273 6.54492 163.847 6.54492C163.427 6.54492 163.106 6.70117 162.885 7.01367C162.663 7.32292 162.553 7.78516 162.553 8.40039V10.4854C162.553 11.1006 162.665 11.5661 162.89 11.8818C163.114 12.1943 163.437 12.3506 163.856 12.3506ZM169.558 13V12.3848L170.354 12.248V11.3594H167.161V10.8174L170.296 5.89062H171.311V10.6074H172.293V11.3594H171.311V12.248L172.107 12.3848V13H169.558ZM168.186 10.6074H170.354V7.2627L170.325 7.25293L170.227 7.51172L168.186 10.6074Z" fill="#7C7C7C" fill-opacity="0.2"/>
<path d="M210.591 26V25.3848L211.689 25.248V19.9209L210.571 19.9404V19.3398L212.651 18.8906V25.248L213.745 25.3848V26H210.591ZM216.014 26L216.092 25.2334C216.184 24.4847 216.332 23.793 216.537 23.1582C216.742 22.5234 217.007 21.9196 217.333 21.3467C217.658 20.7738 218.049 20.2074 218.504 19.6475H215.536L215.463 20.4629H214.642V18.8906H219.447V19.6475C219.017 20.1585 218.662 20.6338 218.382 21.0732C218.102 21.5094 217.876 21.9408 217.704 22.3672C217.534 22.7904 217.401 23.2331 217.303 23.6953C217.206 24.1576 217.123 24.6702 217.054 25.2334L216.976 26H216.014Z" fill="#7C7C7C"/>
<path d="M210.591 38V37.3848L211.689 37.248V31.9209L210.571 31.9404V31.3398L212.651 30.8906V37.248L213.745 37.3848V38H210.591ZM217.035 38.1025C216.569 38.1025 216.162 38.026 215.814 37.873C215.469 37.7168 215.2 37.4889 215.008 37.1895C214.816 36.8867 214.72 36.5156 214.72 36.0762C214.72 35.6758 214.841 35.3226 215.082 35.0166C215.323 34.7106 215.648 34.486 216.058 34.3428C215.703 34.2061 215.425 33.9993 215.223 33.7227C215.021 33.4427 214.921 33.1172 214.921 32.7461C214.921 32.3294 215.008 31.9762 215.184 31.6865C215.36 31.3936 215.606 31.1706 215.921 31.0176C216.237 30.8646 216.605 30.7881 217.025 30.7881C217.442 30.7881 217.81 30.8646 218.129 31.0176C218.448 31.1706 218.697 31.3936 218.876 31.6865C219.058 31.9762 219.149 32.3294 219.149 32.7461C219.149 33.1172 219.045 33.4427 218.837 33.7227C218.628 33.9993 218.347 34.2061 217.992 34.3428C218.402 34.486 218.729 34.7106 218.973 35.0166C219.221 35.3226 219.344 35.6758 219.344 36.0762C219.344 36.5156 219.247 36.8867 219.051 37.1895C218.856 37.4889 218.584 37.7168 218.236 37.873C217.891 38.026 217.49 38.1025 217.035 38.1025ZM217.035 37.3506C217.302 37.3506 217.536 37.2985 217.738 37.1943C217.943 37.0902 218.102 36.9421 218.216 36.75C218.33 36.5547 218.387 36.3236 218.387 36.0566C218.387 35.7962 218.329 35.5651 218.212 35.3633C218.094 35.1615 217.933 35.0036 217.728 34.8896C217.523 34.7757 217.289 34.7188 217.025 34.7188C216.761 34.7188 216.529 34.7757 216.327 34.8896C216.125 35.0036 215.967 35.1615 215.853 35.3633C215.739 35.5618 215.682 35.793 215.682 36.0566C215.682 36.4603 215.804 36.7777 216.048 37.0088C216.296 37.2367 216.625 37.3506 217.035 37.3506ZM217.035 33.9619C217.259 33.9619 217.458 33.9131 217.63 33.8154C217.806 33.7145 217.943 33.5745 218.041 33.3955C218.138 33.2165 218.187 33.0065 218.187 32.7656C218.187 32.5312 218.137 32.3229 218.036 32.1406C217.935 31.9551 217.796 31.8102 217.621 31.7061C217.448 31.5986 217.25 31.5449 217.025 31.5449C216.683 31.5449 216.407 31.6572 216.195 31.8818C215.987 32.1032 215.882 32.3978 215.882 32.7656C215.882 33.127 215.988 33.4167 216.2 33.6348C216.411 33.8529 216.69 33.9619 217.035 33.9619Z" fill="#7C7C7C" fill-opacity="0.2"/>
<path d="M210.591 13V12.3848L211.689 12.248V6.9209L210.571 6.94043V6.33984L212.651 5.89062V12.248L213.745 12.3848V13H210.591ZM216.014 13L216.092 12.2334C216.184 11.4847 216.332 10.793 216.537 10.1582C216.742 9.52344 217.007 8.9196 217.333 8.34668C217.658 7.77376 218.049 7.20736 218.504 6.64746H215.536L215.463 7.46289H214.642V5.89062H219.447V6.64746C219.017 7.15853 218.662 7.63379 218.382 8.07324C218.102 8.50944 217.876 8.94076 217.704 9.36719C217.534 9.79036 217.401 10.2331 217.303 10.6953C217.206 11.1576 217.123 11.6702 217.054 12.2334L216.976 13H216.014Z" fill="#7C7C7C" fill-opacity="0.2"/>
</svg>
