<svg width="350" height="85" viewBox="0 0 350 85" fill="none" xmlns="http://www.w3.org/2000/svg">
<g filter="url(#filter0_d_51_634)">
<path d="M16.9119 37.9608H21.8834V60.7498H16.9119V37.9608ZM31.0308 37.9608H36.042V60.7498H31.0308V37.9608ZM8.36108 57.6078H44.7519V62.2611H8.36108V57.6078ZM9.71331 45.3583H43.519V49.932H9.71331V45.3583ZM29.2411 65.9996L33.6159 63.6133C36.9965 66.1189 41.9281 69.8177 44.4735 72.2437L39.7407 75.0277C37.5135 72.6414 32.7807 68.7438 29.2411 65.9996ZM18.6619 63.7724L23.7128 65.7212C20.73 69.1813 16.3551 72.8005 12.4973 75.0277C11.503 74.0334 9.71331 72.5221 8.59971 71.6869C12.3382 69.7381 16.5938 66.4371 18.6619 63.7724Z" fill="white"/>
<path d="M75.5747 46.9093H95.4604V50.9262H75.5747V46.9093ZM77.444 53.9489H81.8188V69.9767H77.444V53.9489ZM79.8303 53.9489H93.7105V67.3518H79.8303V63.3747H89.2959V57.8465H79.8303V53.9489ZM68.6545 39.5516H100.472V44.0856H73.268V75.0675H68.6545V39.5516ZM97.8069 39.5516H102.5V69.579C102.5 72.0449 102.023 73.3971 100.472 74.1527C98.9603 74.9482 96.7729 75.0675 93.3923 75.0675C93.2332 73.755 92.5173 71.5676 91.8014 70.3745C93.9093 70.454 96.2161 70.454 96.8922 70.454C97.5683 70.4142 97.8069 70.1756 97.8069 69.4995V39.5516Z" fill="white"/>
<path d="M250.671 48.8581H278.312V52.6364H250.671V48.8581ZM250.989 60.4714H272.823V64.2099H250.989V60.4714ZM256.08 46.2332H260.574V55.2613H267.852V46.2332H272.545V58.8805H256.08V46.2332ZM271.59 60.4714H272.505L273.34 60.2725L276.323 61.7838C272.028 70.4142 262.403 73.7153 251.227 75.1073C250.87 73.9141 249.995 72.1244 249.239 71.1301C259.42 70.2551 268.369 67.4314 271.59 61.068V60.4714ZM259.142 63.3747C262.721 67.8291 270.159 70.2551 279.306 71.0506C278.312 72.0449 277.119 73.9539 276.522 75.147C266.858 73.9539 259.5 70.7722 255.046 64.8462L259.142 63.3747ZM259.381 37.6824H264.352V43.6481H259.381V37.6824ZM247.449 41.2618H278.511V45.5173H247.449V41.2618ZM245.103 41.2618H249.676V52.4773C249.676 58.9601 249.08 68.7438 245.461 74.9084C244.625 74.113 242.637 72.8005 241.523 72.2835C244.864 66.6359 245.103 58.3237 245.103 52.4773V41.2618Z" fill="white"/>
<path d="M302.016 41.3811L305.714 38.9153C307.902 40.9039 310.566 43.6879 311.76 45.6366L307.743 48.4604C306.709 46.4719 304.203 43.5288 302.016 41.3811ZM310.805 52.3978V67.7098H306.112V56.8522H301.459V52.3978H310.805ZM308.339 65.1644C309.731 65.1644 310.765 66.3178 313.112 67.5507C315.816 69.062 319.555 69.3404 323.93 69.3404C328.066 69.3404 334.588 68.9427 338.605 68.3461C338.009 69.6983 337.173 72.2039 337.134 73.6357C334.31 73.8346 327.867 74.0334 323.771 74.0334C318.72 74.0334 315.299 73.5959 312.356 72.0051C310.487 71.0108 309.135 69.7779 308.22 69.7779C307.066 69.7779 305.356 72.4028 303.925 74.7891L300.544 69.937C303.288 67.0337 306.311 65.1644 308.339 65.1644ZM313.072 44.5231H337.651V49.0172H313.072V44.5231ZM327.907 37.921H332.759V62.1418C332.759 64.886 332.162 66.1587 330.333 66.8746C328.583 67.6302 325.878 67.7495 322.14 67.7495C321.941 66.3575 321.185 64.2497 320.509 62.8974C323.094 63.0167 325.958 63.0167 326.793 63.0167C327.628 62.977 327.907 62.7781 327.907 62.0622V37.921ZM314.186 52.8353L318.004 50.6876C319.952 53.0341 322.538 56.2954 323.691 58.4033L319.634 60.9089C318.56 58.801 316.134 55.3409 314.186 52.8353Z" fill="white"/>
<path d="M27.7923 36.8473L23.9146 31.6339C22.7657 31.8637 21.6454 31.9786 20.5539 31.9786C17.7103 31.9786 15.0964 31.3179 12.7123 29.9967C10.357 28.6754 8.47558 26.837 7.06811 24.4817C5.68937 22.0976 5 19.4263 5 16.4678C5 13.5092 5.68937 10.8523 7.06811 8.4969C8.47558 6.14156 10.357 4.30323 12.7123 2.98194C15.0964 1.66065 17.7103 1 20.5539 1C23.3976 1 25.9971 1.66065 28.3524 2.98194C30.7365 4.30323 32.6036 6.14156 33.9536 8.4969C35.3323 10.8523 36.0217 13.5092 36.0217 16.4678C36.0217 19.0529 35.4903 21.4226 34.4275 23.5769C33.3935 25.7024 31.9429 27.469 30.0759 28.8764L36.7111 36.8473H27.7923ZM12.54 16.4678C12.54 19.1391 13.2581 21.279 14.6943 22.8875C16.1592 24.4673 18.1124 25.2572 20.5539 25.2572C22.9667 25.2572 24.8912 24.453 26.3274 22.8444C27.7923 21.2359 28.5248 19.1103 28.5248 16.4678C28.5248 13.7964 27.7923 11.6709 26.3274 10.0911C24.8912 8.48254 22.9667 7.67828 20.5539 7.67828C18.1124 7.67828 16.1592 8.46818 14.6943 10.048C13.2581 11.6278 12.54 13.7677 12.54 16.4678Z" fill="white"/>
<path d="M47.4431 1.43086V19.5268C47.4431 21.3364 47.8883 22.7295 48.7787 23.7061C49.6692 24.6828 50.9761 25.1711 52.6995 25.1711C54.423 25.1711 55.7443 24.6828 56.6634 23.7061C57.5826 22.7295 58.0421 21.3364 58.0421 19.5268V1.43086H65.4098V19.4837C65.4098 22.1838 64.8353 24.4673 63.6864 26.3344C62.5374 28.2014 60.9863 29.6089 59.0331 30.5568C57.1086 31.5047 54.9543 31.9786 52.5703 31.9786C50.1862 31.9786 48.0463 31.519 46.1505 30.5998C44.2835 29.652 42.8042 28.2445 41.7127 26.3775C40.6212 24.4817 40.0754 22.1838 40.0754 19.4837V1.43086H47.4431Z" fill="white"/>
<path d="M77.9511 7.33359V13.4518H87.8177V19.1391H77.9511V25.7743H89.1103V31.677H70.5834V1.43086H89.1103V7.33359H77.9511Z" fill="white"/>
<path d="M101.261 7.33359V13.4518H111.128V19.1391H101.261V25.7743H112.42V31.677H93.8935V1.43086H112.42V7.33359H101.261Z" fill="white"/>
<path d="M132.628 31.677L126.338 20.2593H124.571V31.677H117.203V1.43086H129.569C131.953 1.43086 133.978 1.84735 135.644 2.68034C137.339 3.51333 138.603 4.66228 139.436 6.12719C140.269 7.56338 140.685 9.17191 140.685 10.9528C140.685 12.9635 140.111 14.7587 138.962 16.3385C137.842 17.9183 136.176 19.0385 133.964 19.6992L140.944 31.677H132.628ZM124.571 15.0459H129.138C130.488 15.0459 131.494 14.7156 132.154 14.055C132.844 13.3943 133.188 12.4608 133.188 11.2544C133.188 10.1054 132.844 9.20064 132.154 8.53999C131.494 7.87934 130.488 7.54902 129.138 7.54902H124.571V15.0459Z" fill="white"/>
<path d="M188.694 1.43086V31.677H181.326V13.5379L174.562 31.677H168.616L161.808 13.4948V31.677H154.441V1.43086H163.144L171.632 22.3705L180.033 1.43086H188.694Z" fill="white"/>
<path d="M208.296 31.9786C205.453 31.9786 202.839 31.3179 200.455 29.9967C198.099 28.6754 196.218 26.837 194.811 24.4817C193.432 22.0976 192.742 19.4263 192.742 16.4678C192.742 13.5092 193.432 10.8523 194.811 8.4969C196.218 6.14156 198.099 4.30323 200.455 2.98194C202.839 1.66065 205.453 1 208.296 1C211.14 1 213.739 1.66065 216.095 2.98194C218.479 4.30323 220.346 6.14156 221.696 8.4969C223.075 10.8523 223.764 13.5092 223.764 16.4678C223.764 19.4263 223.075 22.0976 221.696 24.4817C220.317 26.837 218.45 28.6754 216.095 29.9967C213.739 31.3179 211.14 31.9786 208.296 31.9786ZM208.296 25.2572C210.709 25.2572 212.634 24.453 214.07 22.8444C215.535 21.2359 216.267 19.1103 216.267 16.4678C216.267 13.7964 215.535 11.6709 214.07 10.0911C212.634 8.48254 210.709 7.67828 208.296 7.67828C205.855 7.67828 203.902 8.46818 202.437 10.048C201.001 11.6278 200.282 13.7677 200.282 16.4678C200.282 19.1391 201.001 21.279 202.437 22.8875C203.902 24.4673 205.855 25.2572 208.296 25.2572Z" fill="white"/>
<path d="M262.116 1.43086V31.677H254.748V13.5379L247.984 31.677H242.038L235.231 13.4948V31.677H227.863V1.43086H236.566L245.054 22.3705L253.456 1.43086H262.116Z" fill="white"/>
<path d="M274.782 7.33359V13.4518H284.648V19.1391H274.782V25.7743H285.941V31.677H267.414V1.43086H285.941V7.33359H274.782Z" fill="white"/>
<path d="M317.782 31.677H310.414L298.092 13.0209V31.677H290.724V1.43086H298.092L310.414 20.1731V1.43086H317.782V31.677Z" fill="white"/>
<path d="M344.881 1.43086V7.33359H336.867V31.677H329.499V7.33359H321.485V1.43086H344.881Z" fill="white"/>
</g>
<defs>
<filter id="filter0_d_51_634" x="0" y="0" width="349.881" height="84.147" filterUnits="userSpaceOnUse" color-interpolation-filters="sRGB">
<feFlood flood-opacity="0" result="BackgroundImageFix"/>
<feColorMatrix in="SourceAlpha" type="matrix" values="0 0 0 0 0 0 0 0 0 0 0 0 0 0 0 0 0 0 127 0" result="hardAlpha"/>
<feOffset dy="4"/>
<feGaussianBlur stdDeviation="2.5"/>
<feComposite in2="hardAlpha" operator="out"/>
<feColorMatrix type="matrix" values="0 0 0 0 0.729011 0 0 0 0 0.190556 0 0 0 0 0.816667 0 0 0 0.1 0"/>
<feBlend mode="normal" in2="BackgroundImageFix" result="effect1_dropShadow_51_634"/>
<feBlend mode="normal" in="SourceGraphic" in2="effect1_dropShadow_51_634" result="shape"/>
</filter>
</defs>
</svg>
