<svg width="53" height="56" viewBox="0 0 53 56" fill="none" xmlns="http://www.w3.org/2000/svg">
<g filter="url(#filter0_d_51_1002)">
<path d="M35.7129 29.8564L8.00008 29.8564L21.8565 5.85641L35.7129 29.8564Z" fill="#8C24DE"/>
</g>
<path d="M5.42154 54.5908C4.85025 54.4297 4.44303 54.1733 4.19986 53.8218C3.95963 53.4702 3.83951 53.0439 3.83951 52.543V51.6465C3.83951 51.3418 3.77066 51.1045 3.63297 50.9346C3.4982 50.7646 3.28727 50.6797 3.00016 50.6797V49.8931C3.28727 49.8931 3.4982 49.8096 3.63297 49.6426C3.77066 49.4727 3.83951 49.2324 3.83951 48.9219V48.0254C3.83951 47.5244 3.95963 47.0996 4.19986 46.751C4.44303 46.3994 4.85025 46.1431 5.42154 45.9819L5.63688 46.5972C5.35563 46.6938 5.15641 46.8652 5.03922 47.1113C4.92496 47.3574 4.86783 47.6621 4.86783 48.0254V48.9219C4.86783 49.2295 4.80338 49.5005 4.67447 49.7349C4.54557 49.9692 4.35221 50.1523 4.09439 50.2842C4.35221 50.4219 4.54557 50.6094 4.67447 50.8467C4.80338 51.0811 4.86783 51.3477 4.86783 51.6465V52.543C4.86783 52.9062 4.92496 53.2095 5.03922 53.4526C5.15641 53.6987 5.35563 53.8716 5.63688 53.9712L5.42154 54.5908ZM10.1381 47.474H15.4301V48.122H10.1381V47.474ZM9.80511 49.67H15.7991V50.309H9.80511V49.67ZM13.1171 49.886C13.5311 51.47 14.4581 52.649 16.0061 53.126C15.8441 53.27 15.6461 53.54 15.5471 53.72C13.9361 53.135 13.0001 51.839 12.5321 50.012L13.1171 49.886ZM14.4491 45.458L15.1511 45.701C14.8271 46.277 14.4311 46.943 14.1161 47.366L13.5671 47.141C13.8641 46.691 14.2421 45.962 14.4491 45.458ZM10.5071 45.827L11.0561 45.548C11.4341 46.007 11.8301 46.646 11.9921 47.069L11.4071 47.393C11.2541 46.961 10.8671 46.304 10.5071 45.827ZM12.3881 47.627H13.0901V49.499C13.0901 50.885 12.7571 52.604 9.99411 53.756C9.89511 53.594 9.68811 53.36 9.52611 53.225C12.2081 52.208 12.3881 50.66 12.3881 49.499V47.627ZM17.9141 49.04H25.9421V49.706H17.9141V49.04ZM21.6491 46.313H22.3601V52.739C22.3601 53.234 22.2251 53.441 21.8831 53.558C21.5501 53.666 20.9561 53.684 20.0381 53.684C19.9931 53.486 19.8581 53.171 19.7591 52.973C20.4971 52.991 21.1811 52.991 21.3881 52.982C21.5771 52.973 21.6491 52.919 21.6491 52.739V46.313ZM18.5441 46.088H25.3121V46.754H18.5441V46.088ZM32.8901 46.034L33.4031 45.683C33.9341 46.133 34.5641 46.772 34.8611 47.186L34.3031 47.582C34.0331 47.15 33.4211 46.502 32.8901 46.034ZM27.0581 48.104H35.0771V48.752H27.0581V48.104ZM26.9231 50.75C27.9941 50.552 29.6861 50.192 31.2701 49.85L31.3241 50.462C29.8481 50.804 28.2551 51.173 27.1211 51.425L26.9231 50.75ZM28.9931 46.358H29.6681V52.856C29.6681 53.297 29.5601 53.495 29.2721 53.603C28.9841 53.711 28.5071 53.738 27.7601 53.729C27.7241 53.549 27.6071 53.243 27.5081 53.045C28.0841 53.072 28.6151 53.063 28.7771 53.054C28.9391 53.054 28.9931 53.009 28.9931 52.847V46.358ZM30.7031 45.548L31.1801 46.115C30.1361 46.475 28.6061 46.754 27.3191 46.934C27.2831 46.781 27.2021 46.529 27.1121 46.376C28.3811 46.178 29.8391 45.872 30.7031 45.548ZM31.6031 45.521H32.3051C32.2871 49.652 33.1691 53.072 34.2671 53.072C34.5101 53.072 34.6181 52.604 34.6721 51.443C34.8161 51.596 35.0591 51.749 35.2481 51.821C35.1221 53.315 34.8791 53.756 34.2041 53.756C32.4401 53.756 31.6391 49.805 31.6031 45.521ZM34.0421 49.166L34.6451 49.418C33.7631 51.065 32.2781 52.514 30.6221 53.387C30.5141 53.216 30.3251 53 30.1541 52.847C31.7561 52.073 33.2411 50.687 34.0421 49.166ZM40.8731 45.773H43.5821V46.394H40.8731V45.773ZM43.3211 45.773H43.9961V52.874C43.9961 53.279 43.8971 53.477 43.6181 53.585C43.3481 53.693 42.8891 53.702 42.1781 53.702C42.1511 53.531 42.0521 53.234 41.9621 53.054C42.4751 53.081 42.9701 53.072 43.1231 53.063C43.2671 53.054 43.3211 53.009 43.3211 52.865V45.773ZM39.1181 45.737L39.6401 45.449C40.0361 45.989 40.5131 46.727 40.7201 47.177L40.1621 47.501C39.9641 47.042 39.5141 46.286 39.1181 45.737ZM38.7401 47.258H39.3971V53.72H38.7401V47.258ZM37.7141 45.494L38.3441 45.665C37.8941 47.222 37.1921 48.806 36.3821 49.859C36.3191 49.706 36.1301 49.346 36.0131 49.175C36.7241 48.266 37.3451 46.88 37.7141 45.494ZM37.0031 47.762L37.6241 47.132L37.6511 47.15V53.72H37.0031V47.762ZM47.5565 54.5908L47.3412 53.9712C47.6165 53.8716 47.8128 53.6987 47.93 53.4526C48.0472 53.2095 48.1058 52.9062 48.1058 52.543V51.6465C48.1058 51.3389 48.1717 51.0679 48.3036 50.8335C48.4383 50.5991 48.6434 50.4175 48.9188 50.2886C48.6434 50.1597 48.4383 49.978 48.3036 49.7437C48.1717 49.5093 48.1058 49.2354 48.1058 48.9219V48.0254C48.1058 47.6621 48.0472 47.3574 47.93 47.1113C47.8128 46.8652 47.6165 46.6938 47.3412 46.5972L47.5565 45.9819C48.1248 46.1431 48.5306 46.3994 48.7738 46.751C49.0169 47.0996 49.1385 47.5244 49.1385 48.0254V48.9219C49.1385 49.2324 49.2059 49.4727 49.3407 49.6426C49.4754 49.8096 49.6864 49.8931 49.9735 49.8931V50.6797C49.6864 50.6797 49.4754 50.7646 49.3407 50.9346C49.2059 51.1045 49.1385 51.3418 49.1385 51.6465V52.543C49.1385 53.0439 49.0169 53.4702 48.7738 53.8218C48.5306 54.1733 48.1248 54.4297 47.5565 54.5908Z" fill="white"/>
<defs>
<filter id="filter0_d_51_1002" x="4" y="5.85638" width="35.7129" height="32" filterUnits="userSpaceOnUse" color-interpolation-filters="sRGB">
<feFlood flood-opacity="0" result="BackgroundImageFix"/>
<feColorMatrix in="SourceAlpha" type="matrix" values="0 0 0 0 0 0 0 0 0 0 0 0 0 0 0 0 0 0 127 0" result="hardAlpha"/>
<feOffset dy="4"/>
<feGaussianBlur stdDeviation="2"/>
<feComposite in2="hardAlpha" operator="out"/>
<feColorMatrix type="matrix" values="0 0 0 0 0.729412 0 0 0 0 0.192157 0 0 0 0 0.815686 0 0 0 0.25 0"/>
<feBlend mode="normal" in2="BackgroundImageFix" result="effect1_dropShadow_51_1002"/>
<feBlend mode="normal" in="SourceGraphic" in2="effect1_dropShadow_51_1002" result="shape"/>
</filter>
</defs>
</svg>
