<svg width="36" height="44" viewBox="0 0 36 44" fill="none" xmlns="http://www.w3.org/2000/svg">
<g filter="url(#filter0_d_51_913)">
<path d="M18 0L31.8564 24L4.14359 24L18 0Z" fill="white"/>
</g>
<path d="M11.124 42.5908C10.5528 42.4297 10.1455 42.1733 9.90236 41.8218C9.66213 41.4702 9.54201 41.0439 9.54201 40.543V39.6465C9.54201 39.3418 9.47316 39.1045 9.33547 38.9346C9.2007 38.7646 8.98977 38.6797 8.70266 38.6797V37.8931C8.98977 37.8931 9.2007 37.8096 9.33547 37.6426C9.47316 37.4727 9.54201 37.2324 9.54201 36.9219V36.0254C9.54201 35.5244 9.66213 35.0996 9.90236 34.751C10.1455 34.3994 10.5528 34.1431 11.124 33.9819L11.3394 34.5972C11.0581 34.6938 10.8589 34.8652 10.7417 35.1113C10.6275 35.3574 10.5703 35.6621 10.5703 36.0254V36.9219C10.5703 37.2295 10.5059 37.5005 10.377 37.7349C10.2481 37.9692 10.0547 38.1523 9.79689 38.2842C10.0547 38.4219 10.2481 38.6094 10.377 38.8467C10.5059 39.0811 10.5703 39.3477 10.5703 39.6465V40.543C10.5703 40.9062 10.6275 41.2095 10.7417 41.4526C10.8589 41.6987 11.0581 41.8716 11.3394 41.9712L11.124 42.5908ZM18.1806 33.485L18.8466 33.629C18.4956 35.069 17.9286 36.455 17.2356 37.373C17.1186 37.256 16.8486 37.04 16.6956 36.941C17.3616 36.104 17.8836 34.808 18.1806 33.485ZM18.0276 37.301L18.6846 37.436C18.4056 38.615 17.9196 39.758 17.3706 40.514C17.2356 40.406 16.9476 40.226 16.7856 40.145C17.3436 39.452 17.7756 38.381 18.0276 37.301ZM18.0996 35.177H22.1496V35.807H17.8386L18.0996 35.177ZM19.4946 35.438H20.1696V40.901C20.1696 41.288 20.0886 41.486 19.8366 41.594C19.5936 41.711 19.2066 41.729 18.6486 41.729C18.6036 41.54 18.5046 41.243 18.4056 41.045C18.8286 41.063 19.2156 41.054 19.3416 41.054C19.4586 41.054 19.4946 41.018 19.4946 40.901V35.438ZM20.8176 37.436L21.4206 37.238C21.9426 38.183 22.3926 39.425 22.5456 40.262L21.9066 40.478C21.7626 39.65 21.3126 38.381 20.8176 37.436ZM21.9516 35.177H22.0416L22.1586 35.159L22.6266 35.258C22.5006 35.924 22.3476 36.698 22.2306 37.184L21.6456 37.076C21.7446 36.626 21.8616 35.87 21.9516 35.276V35.177ZM16.3716 33.476L17.0106 33.674C16.4166 35.204 15.4896 36.725 14.5176 37.733C14.4456 37.58 14.2566 37.22 14.1306 37.067C15.0216 36.194 15.8676 34.844 16.3716 33.476ZM15.4356 35.798L16.0656 35.159L16.0836 35.168V41.711H15.4356V35.798ZM25.854 42.5908L25.6387 41.9712C25.914 41.8716 26.1103 41.6987 26.2275 41.4526C26.3447 41.2095 26.4033 40.9062 26.4033 40.543V39.6465C26.4033 39.3389 26.4692 39.0679 26.6011 38.8335C26.7358 38.5991 26.9409 38.4175 27.2163 38.2886C26.9409 38.1597 26.7358 37.978 26.6011 37.7437C26.4692 37.5093 26.4033 37.2354 26.4033 36.9219V36.0254C26.4033 35.6621 26.3447 35.3574 26.2275 35.1113C26.1103 34.8652 25.914 34.6938 25.6387 34.5972L25.854 33.9819C26.4223 34.1431 26.8281 34.3994 27.0713 34.751C27.3144 35.0996 27.436 35.5244 27.436 36.0254V36.9219C27.436 37.2324 27.5034 37.4727 27.6382 37.6426C27.7729 37.8096 27.9839 37.8931 28.271 37.8931V38.6797C27.9839 38.6797 27.7729 38.7646 27.6382 38.9346C27.5034 39.1045 27.436 39.3418 27.436 39.6465V40.543C27.436 41.0439 27.3144 41.4702 27.0713 41.8218C26.8281 42.1733 26.4223 42.4297 25.854 42.5908Z" fill="white"/>
<defs>
<filter id="filter0_d_51_913" x="0.143555" y="0" width="35.7129" height="32" filterUnits="userSpaceOnUse" color-interpolation-filters="sRGB">
<feFlood flood-opacity="0" result="BackgroundImageFix"/>
<feColorMatrix in="SourceAlpha" type="matrix" values="0 0 0 0 0 0 0 0 0 0 0 0 0 0 0 0 0 0 127 0" result="hardAlpha"/>
<feOffset dy="4"/>
<feGaussianBlur stdDeviation="2"/>
<feComposite in2="hardAlpha" operator="out"/>
<feColorMatrix type="matrix" values="0 0 0 0 0.729412 0 0 0 0 0.192157 0 0 0 0 0.815686 0 0 0 0.25 0"/>
<feBlend mode="normal" in2="BackgroundImageFix" result="effect1_dropShadow_51_913"/>
<feBlend mode="normal" in="SourceGraphic" in2="effect1_dropShadow_51_913" result="shape"/>
</filter>
</defs>
</svg>
