<svg width="36" height="44" viewBox="0 0 36 44" fill="none" xmlns="http://www.w3.org/2000/svg">
<g filter="url(#filter0_d_51_1005)">
<path d="M32 16L8 29.8564L8 2.14359L32 16Z" fill="#8C24DE"/>
</g>
<path d="M11.124 42.5907C10.5528 42.4296 10.1455 42.1732 9.90236 41.8217C9.66213 41.4701 9.54201 41.0438 9.54201 40.5428V39.6464C9.54201 39.3417 9.47316 39.1044 9.33547 38.9344C9.2007 38.7645 8.98977 38.6796 8.70266 38.6796V37.8929C8.98977 37.8929 9.2007 37.8094 9.33547 37.6425C9.47316 37.4725 9.54201 37.2323 9.54201 36.9218V36.0253C9.54201 35.5243 9.66213 35.0995 9.90236 34.7509C10.1455 34.3993 10.5528 34.1429 11.124 33.9818L11.3394 34.597C11.0581 34.6937 10.8589 34.8651 10.7417 35.1112C10.6275 35.3573 10.5703 35.662 10.5703 36.0253V36.9218C10.5703 37.2294 10.5059 37.5004 10.377 37.7347C10.2481 37.9691 10.0547 38.1522 9.79689 38.2841C10.0547 38.4218 10.2481 38.6093 10.377 38.8466C10.5059 39.0809 10.5703 39.3475 10.5703 39.6464V40.5428C10.5703 40.9061 10.6275 41.2094 10.7417 41.4525C10.8589 41.6986 11.0581 41.8715 11.3394 41.9711L11.124 42.5907ZM18.1806 33.4849L18.8466 33.6289C18.4956 35.0689 17.9286 36.4549 17.2356 37.3729C17.1186 37.2559 16.8486 37.0399 16.6956 36.9409C17.3616 36.1039 17.8836 34.8079 18.1806 33.4849ZM18.0276 37.3009L18.6846 37.4359C18.4056 38.6149 17.9196 39.7579 17.3706 40.5139C17.2356 40.4059 16.9476 40.2259 16.7856 40.1449C17.3436 39.4519 17.7756 38.3809 18.0276 37.3009ZM18.0996 35.1769H22.1496V35.8069H17.8386L18.0996 35.1769ZM19.4946 35.4379H20.1696V40.9009C20.1696 41.2879 20.0886 41.4859 19.8366 41.5939C19.5936 41.7109 19.2066 41.7289 18.6486 41.7289C18.6036 41.5399 18.5046 41.2429 18.4056 41.0449C18.8286 41.0629 19.2156 41.0539 19.3416 41.0539C19.4586 41.0539 19.4946 41.0179 19.4946 40.9009V35.4379ZM20.8176 37.4359L21.4206 37.2379C21.9426 38.1829 22.3926 39.4249 22.5456 40.2619L21.9066 40.4779C21.7626 39.6499 21.3126 38.3809 20.8176 37.4359ZM21.9516 35.1769H22.0416L22.1586 35.1589L22.6266 35.2579C22.5006 35.9239 22.3476 36.6979 22.2306 37.1839L21.6456 37.0759C21.7446 36.6259 21.8616 35.8699 21.9516 35.2759V35.1769ZM16.3716 33.4759L17.0106 33.6739C16.4166 35.2039 15.4896 36.7249 14.5176 37.7329C14.4456 37.5799 14.2566 37.2199 14.1306 37.0669C15.0216 36.1939 15.8676 34.8439 16.3716 33.4759ZM15.4356 35.7979L16.0656 35.1589L16.0836 35.1679V41.7109H15.4356V35.7979ZM25.854 42.5907L25.6387 41.9711C25.914 41.8715 26.1103 41.6986 26.2275 41.4525C26.3447 41.2094 26.4033 40.9061 26.4033 40.5428V39.6464C26.4033 39.3387 26.4692 39.0677 26.6011 38.8334C26.7358 38.599 26.9409 38.4174 27.2163 38.2885C26.9409 38.1595 26.7358 37.9779 26.6011 37.7435C26.4692 37.5092 26.4033 37.2352 26.4033 36.9218V36.0253C26.4033 35.662 26.3447 35.3573 26.2275 35.1112C26.1103 34.8651 25.914 34.6937 25.6387 34.597L25.854 33.9818C26.4223 34.1429 26.8281 34.3993 27.0713 34.7509C27.3144 35.0995 27.436 35.5243 27.436 36.0253V36.9218C27.436 37.2323 27.5034 37.4725 27.6382 37.6425C27.7729 37.8094 27.9839 37.8929 28.271 37.8929V38.6796C27.9839 38.6796 27.7729 38.7645 27.6382 38.9344C27.5034 39.1044 27.436 39.3417 27.436 39.6464V40.5428C27.436 41.0438 27.3144 41.4701 27.0713 41.8217C26.8281 42.1732 26.4223 42.4296 25.854 42.5907Z" fill="white"/>
<defs>
<filter id="filter0_d_51_1005" x="4" y="2.14355" width="32" height="35.7129" filterUnits="userSpaceOnUse" color-interpolation-filters="sRGB">
<feFlood flood-opacity="0" result="BackgroundImageFix"/>
<feColorMatrix in="SourceAlpha" type="matrix" values="0 0 0 0 0 0 0 0 0 0 0 0 0 0 0 0 0 0 127 0" result="hardAlpha"/>
<feOffset dy="4"/>
<feGaussianBlur stdDeviation="2"/>
<feComposite in2="hardAlpha" operator="out"/>
<feColorMatrix type="matrix" values="0 0 0 0 0.729412 0 0 0 0 0.192157 0 0 0 0 0.815686 0 0 0 0.25 0"/>
<feBlend mode="normal" in2="BackgroundImageFix" result="effect1_dropShadow_51_1005"/>
<feBlend mode="normal" in="SourceGraphic" in2="effect1_dropShadow_51_1005" result="shape"/>
</filter>
</defs>
</svg>
